<svg width="96" height="132" viewBox="0 0 96 132" fill="none" xmlns="http://www.w3.org/2000/svg">
<mask id="mask0_2_27" style="mask-type:alpha" maskUnits="userSpaceOnUse" x="19" y="0" width="51" height="51">
<rect x="19" width="51" height="51" fill="#D9D9D9"/>
</mask>
<g mask="url(#mask0_2_27)">
<path d="M32.8125 42.5C29.5896 42.5 26.8359 41.3844 24.5516 39.1531C22.2672 36.9219 21.125 34.1948 21.125 30.9719C21.125 28.2094 21.9573 25.7479 23.6219 23.5875C25.2865 21.4271 27.4646 20.0458 30.1562 19.4438C31.0417 16.1854 32.8125 13.5469 35.4688 11.5281C38.125 9.50938 41.1354 8.5 44.5 8.5C48.6437 8.5 52.1589 9.94323 55.0453 12.8297C57.9318 15.7161 59.375 19.2312 59.375 23.375C61.8187 23.6583 63.8464 24.712 65.4578 26.5359C67.0693 28.3599 67.875 30.4937 67.875 32.9375C67.875 35.5938 66.9453 37.8516 65.0859 39.7109C63.2266 41.5703 60.9688 42.5 58.3125 42.5H32.8125Z" fill="#0A0908"/>
</g>
<mask id="mask1_2_27" style="mask-type:alpha" maskUnits="userSpaceOnUse" x="0" y="36" width="96" height="96">
<rect y="36" width="95.769" height="95.769" fill="#D9D9D9"/>
</mask>
<g mask="url(#mask1_2_27)">
<path d="M15.9615 119.798V111.817H79.8075V119.798H15.9615ZM31.923 103.836C27.5336 103.836 23.776 102.274 20.6502 99.1477C17.5244 96.0219 15.9615 92.2643 15.9615 87.8749V47.9711H79.8075C82.0022 47.9711 83.8811 48.7526 85.4439 50.3155C87.0068 51.8784 87.7883 53.7572 87.7883 55.9519V67.923C87.7883 70.1177 87.0068 71.9965 85.4439 73.5594C83.8811 75.1223 82.0022 75.9038 79.8075 75.9038H71.8268V87.8749C71.8268 92.2643 70.2639 96.0219 67.1381 99.1477C64.0123 102.274 60.2547 103.836 55.8653 103.836H31.923ZM71.8268 67.923H79.8075V55.9519H71.8268V67.923Z" fill="#0A0908"/>
</g>
</svg>
